<mxfile host="Electron" modified="2023-10-30T15:40:30.865Z" agent="Mozilla/5.0 (Windows NT 10.0; Win64; x64) AppleWebKit/537.36 (KHTML, like Gecko) draw.io/22.0.2 Chrome/114.0.5735.289 Electron/25.8.4 Safari/537.36" etag="e6jxGHXYUWlprBOzJxfS" version="22.0.2" type="device">
  <diagram name="Страница — 1" id="wANQ7TaggkkT3xo8MTAZ">
    <mxGraphModel dx="2542" dy="990" grid="1" gridSize="10" guides="1" tooltips="1" connect="1" arrows="1" fold="1" page="1" pageScale="1" pageWidth="827" pageHeight="1169" math="0" shadow="0">
      <root>
        <mxCell id="0" />
        <mxCell id="1" parent="0" />
        <mxCell id="xDou8C9xw5O-RQy3T55p-1" value="Person" style="swimlane;fontStyle=1;align=center;verticalAlign=top;childLayout=stackLayout;horizontal=1;startSize=26;horizontalStack=0;resizeParent=1;resizeParentMax=0;resizeLast=0;collapsible=1;marginBottom=0;whiteSpace=wrap;html=1;fontSize=16;fontFamily=Helvetica;" vertex="1" parent="1">
          <mxGeometry x="-580" y="250" width="490" height="216" as="geometry" />
        </mxCell>
        <mxCell id="xDou8C9xw5O-RQy3T55p-2" value="- _first_name: string" style="text;strokeColor=none;fillColor=none;align=left;verticalAlign=top;spacingLeft=4;spacingRight=4;overflow=hidden;rotatable=0;points=[[0,0.5],[1,0.5]];portConstraint=eastwest;whiteSpace=wrap;html=1;fontSize=15;" vertex="1" parent="xDou8C9xw5O-RQy3T55p-1">
          <mxGeometry y="26" width="490" height="26" as="geometry" />
        </mxCell>
        <mxCell id="xDou8C9xw5O-RQy3T55p-5" value="- _last_name: string" style="text;strokeColor=none;fillColor=none;align=left;verticalAlign=top;spacingLeft=4;spacingRight=4;overflow=hidden;rotatable=0;points=[[0,0.5],[1,0.5]];portConstraint=eastwest;whiteSpace=wrap;html=1;fontSize=15;" vertex="1" parent="xDou8C9xw5O-RQy3T55p-1">
          <mxGeometry y="52" width="490" height="26" as="geometry" />
        </mxCell>
        <mxCell id="xDou8C9xw5O-RQy3T55p-7" value="- _age : int" style="text;strokeColor=none;fillColor=none;align=left;verticalAlign=top;spacingLeft=4;spacingRight=4;overflow=hidden;rotatable=0;points=[[0,0.5],[1,0.5]];portConstraint=eastwest;whiteSpace=wrap;html=1;fontSize=15;" vertex="1" parent="xDou8C9xw5O-RQy3T55p-1">
          <mxGeometry y="78" width="490" height="26" as="geometry" />
        </mxCell>
        <mxCell id="xDou8C9xw5O-RQy3T55p-3" value="" style="line;strokeWidth=1;fillColor=none;align=left;verticalAlign=middle;spacingTop=-1;spacingLeft=3;spacingRight=3;rotatable=0;labelPosition=right;points=[];portConstraint=eastwest;strokeColor=inherit;fontSize=15;" vertex="1" parent="xDou8C9xw5O-RQy3T55p-1">
          <mxGeometry y="104" width="490" height="8" as="geometry" />
        </mxCell>
        <mxCell id="xDou8C9xw5O-RQy3T55p-4" value="+ &amp;lt;&amp;lt;create&amp;gt;&amp;gt; Person(first_name: string, last_name: string, age: int)" style="text;strokeColor=none;fillColor=none;align=left;verticalAlign=top;spacingLeft=4;spacingRight=4;overflow=hidden;rotatable=0;points=[[0,0.5],[1,0.5]];portConstraint=eastwest;whiteSpace=wrap;html=1;fontSize=15;" vertex="1" parent="xDou8C9xw5O-RQy3T55p-1">
          <mxGeometry y="112" width="490" height="26" as="geometry" />
        </mxCell>
        <mxCell id="xDou8C9xw5O-RQy3T55p-6" value="+ get_first_name(): string" style="text;strokeColor=none;fillColor=none;align=left;verticalAlign=top;spacingLeft=4;spacingRight=4;overflow=hidden;rotatable=0;points=[[0,0.5],[1,0.5]];portConstraint=eastwest;whiteSpace=wrap;html=1;fontSize=15;" vertex="1" parent="xDou8C9xw5O-RQy3T55p-1">
          <mxGeometry y="138" width="490" height="26" as="geometry" />
        </mxCell>
        <mxCell id="xDou8C9xw5O-RQy3T55p-8" value="+ get_last_name(): string" style="text;strokeColor=none;fillColor=none;align=left;verticalAlign=top;spacingLeft=4;spacingRight=4;overflow=hidden;rotatable=0;points=[[0,0.5],[1,0.5]];portConstraint=eastwest;whiteSpace=wrap;html=1;fontSize=15;" vertex="1" parent="xDou8C9xw5O-RQy3T55p-1">
          <mxGeometry y="164" width="490" height="26" as="geometry" />
        </mxCell>
        <mxCell id="xDou8C9xw5O-RQy3T55p-9" value="+ get_age(): int" style="text;strokeColor=none;fillColor=none;align=left;verticalAlign=top;spacingLeft=4;spacingRight=4;overflow=hidden;rotatable=0;points=[[0,0.5],[1,0.5]];portConstraint=eastwest;whiteSpace=wrap;html=1;fontSize=15;" vertex="1" parent="xDou8C9xw5O-RQy3T55p-1">
          <mxGeometry y="190" width="490" height="26" as="geometry" />
        </mxCell>
        <mxCell id="xDou8C9xw5O-RQy3T55p-10" value="AbstractPersonLoader" style="swimlane;fontStyle=1;align=center;verticalAlign=top;childLayout=stackLayout;horizontal=1;startSize=26;horizontalStack=0;resizeParent=1;resizeParentMax=0;resizeLast=0;collapsible=1;marginBottom=0;whiteSpace=wrap;html=1;fontSize=16;" vertex="1" parent="1">
          <mxGeometry x="300" y="250" width="380" height="60" as="geometry" />
        </mxCell>
        <mxCell id="xDou8C9xw5O-RQy3T55p-12" value="" style="line;strokeWidth=1;fillColor=none;align=left;verticalAlign=middle;spacingTop=-1;spacingLeft=3;spacingRight=3;rotatable=0;labelPosition=right;points=[];portConstraint=eastwest;strokeColor=inherit;fontSize=16;" vertex="1" parent="xDou8C9xw5O-RQy3T55p-10">
          <mxGeometry y="26" width="380" height="8" as="geometry" />
        </mxCell>
        <mxCell id="xDou8C9xw5O-RQy3T55p-13" value="+ &amp;lt;&amp;lt;virtual&amp;gt;&amp;gt; load(path: string): list&amp;lt;person&amp;gt; = 0" style="text;strokeColor=none;fillColor=none;align=left;verticalAlign=top;spacingLeft=4;spacingRight=4;overflow=hidden;rotatable=0;points=[[0,0.5],[1,0.5]];portConstraint=eastwest;whiteSpace=wrap;html=1;fontSize=16;" vertex="1" parent="xDou8C9xw5O-RQy3T55p-10">
          <mxGeometry y="34" width="380" height="26" as="geometry" />
        </mxCell>
        <mxCell id="xDou8C9xw5O-RQy3T55p-14" value="JSONLoader" style="swimlane;fontStyle=1;align=center;verticalAlign=top;childLayout=stackLayout;horizontal=1;startSize=26;horizontalStack=0;resizeParent=1;resizeParentMax=0;resizeLast=0;collapsible=1;marginBottom=0;whiteSpace=wrap;html=1;fontSize=16;" vertex="1" parent="1">
          <mxGeometry x="-16" y="510" width="452" height="112" as="geometry" />
        </mxCell>
        <mxCell id="xDou8C9xw5O-RQy3T55p-15" value="- current_path: string" style="text;strokeColor=none;fillColor=none;align=left;verticalAlign=top;spacingLeft=4;spacingRight=4;overflow=hidden;rotatable=0;points=[[0,0.5],[1,0.5]];portConstraint=eastwest;whiteSpace=wrap;html=1;fontSize=16;" vertex="1" parent="xDou8C9xw5O-RQy3T55p-14">
          <mxGeometry y="26" width="452" height="26" as="geometry" />
        </mxCell>
        <mxCell id="xDou8C9xw5O-RQy3T55p-16" value="" style="line;strokeWidth=1;fillColor=none;align=left;verticalAlign=middle;spacingTop=-1;spacingLeft=3;spacingRight=3;rotatable=0;labelPosition=right;points=[];portConstraint=eastwest;strokeColor=inherit;fontSize=16;" vertex="1" parent="xDou8C9xw5O-RQy3T55p-14">
          <mxGeometry y="52" width="452" height="8" as="geometry" />
        </mxCell>
        <mxCell id="xDou8C9xw5O-RQy3T55p-17" value="+ &amp;lt;&amp;lt;virtual&amp;gt;&amp;gt; &amp;lt;&amp;lt;override&amp;gt;&amp;gt;&amp;nbsp;load(path: string): list&amp;lt;person&amp;gt;" style="text;strokeColor=none;fillColor=none;align=left;verticalAlign=top;spacingLeft=4;spacingRight=4;overflow=hidden;rotatable=0;points=[[0,0.5],[1,0.5]];portConstraint=eastwest;whiteSpace=wrap;html=1;fontSize=16;" vertex="1" parent="xDou8C9xw5O-RQy3T55p-14">
          <mxGeometry y="60" width="452" height="26" as="geometry" />
        </mxCell>
        <mxCell id="xDou8C9xw5O-RQy3T55p-18" value="+ reload(): list&amp;lt;person&amp;gt;" style="text;strokeColor=none;fillColor=none;align=left;verticalAlign=top;spacingLeft=4;spacingRight=4;overflow=hidden;rotatable=0;points=[[0,0.5],[1,0.5]];portConstraint=eastwest;whiteSpace=wrap;html=1;fontSize=16;" vertex="1" parent="xDou8C9xw5O-RQy3T55p-14">
          <mxGeometry y="86" width="452" height="26" as="geometry" />
        </mxCell>
        <mxCell id="xDou8C9xw5O-RQy3T55p-19" value="Extends" style="endArrow=block;endSize=16;endFill=0;html=1;rounded=0;exitX=0.5;exitY=0;exitDx=0;exitDy=0;fontSize=16;strokeWidth=2;" edge="1" parent="1" source="xDou8C9xw5O-RQy3T55p-14" target="xDou8C9xw5O-RQy3T55p-10">
          <mxGeometry width="160" relative="1" as="geometry">
            <mxPoint x="330" y="610" as="sourcePoint" />
            <mxPoint x="490" y="610" as="targetPoint" />
            <Array as="points">
              <mxPoint x="210" y="400" />
              <mxPoint x="490" y="400" />
            </Array>
          </mxGeometry>
        </mxCell>
        <mxCell id="xDou8C9xw5O-RQy3T55p-20" value="XMLLoader" style="swimlane;fontStyle=1;align=center;verticalAlign=top;childLayout=stackLayout;horizontal=1;startSize=26;horizontalStack=0;resizeParent=1;resizeParentMax=0;resizeLast=0;collapsible=1;marginBottom=0;whiteSpace=wrap;html=1;fontSize=16;" vertex="1" parent="1">
          <mxGeometry x="522" y="510" width="457" height="112" as="geometry" />
        </mxCell>
        <mxCell id="xDou8C9xw5O-RQy3T55p-21" value="- current_path: string" style="text;strokeColor=none;fillColor=none;align=left;verticalAlign=top;spacingLeft=4;spacingRight=4;overflow=hidden;rotatable=0;points=[[0,0.5],[1,0.5]];portConstraint=eastwest;whiteSpace=wrap;html=1;fontSize=16;" vertex="1" parent="xDou8C9xw5O-RQy3T55p-20">
          <mxGeometry y="26" width="457" height="26" as="geometry" />
        </mxCell>
        <mxCell id="xDou8C9xw5O-RQy3T55p-22" value="" style="line;strokeWidth=1;fillColor=none;align=left;verticalAlign=middle;spacingTop=-1;spacingLeft=3;spacingRight=3;rotatable=0;labelPosition=right;points=[];portConstraint=eastwest;strokeColor=inherit;fontSize=16;" vertex="1" parent="xDou8C9xw5O-RQy3T55p-20">
          <mxGeometry y="52" width="457" height="8" as="geometry" />
        </mxCell>
        <mxCell id="xDou8C9xw5O-RQy3T55p-23" value="+ &amp;lt;&amp;lt;virtual&amp;gt;&amp;gt; &amp;lt;&amp;lt;override&amp;gt;&amp;gt;&amp;nbsp;load(path: string): list&amp;lt;person&amp;gt;" style="text;strokeColor=none;fillColor=none;align=left;verticalAlign=top;spacingLeft=4;spacingRight=4;overflow=hidden;rotatable=0;points=[[0,0.5],[1,0.5]];portConstraint=eastwest;whiteSpace=wrap;html=1;fontSize=16;" vertex="1" parent="xDou8C9xw5O-RQy3T55p-20">
          <mxGeometry y="60" width="457" height="26" as="geometry" />
        </mxCell>
        <mxCell id="xDou8C9xw5O-RQy3T55p-24" value="+ reload(): list&amp;lt;person&amp;gt;" style="text;strokeColor=none;fillColor=none;align=left;verticalAlign=top;spacingLeft=4;spacingRight=4;overflow=hidden;rotatable=0;points=[[0,0.5],[1,0.5]];portConstraint=eastwest;whiteSpace=wrap;html=1;fontSize=16;" vertex="1" parent="xDou8C9xw5O-RQy3T55p-20">
          <mxGeometry y="86" width="457" height="26" as="geometry" />
        </mxCell>
        <mxCell id="xDou8C9xw5O-RQy3T55p-27" value="Extends" style="endArrow=block;endSize=16;endFill=0;html=1;rounded=0;exitX=0.5;exitY=0;exitDx=0;exitDy=0;fontSize=16;strokeWidth=2;" edge="1" parent="1" source="xDou8C9xw5O-RQy3T55p-20" target="xDou8C9xw5O-RQy3T55p-10">
          <mxGeometry width="160" relative="1" as="geometry">
            <mxPoint x="490" y="716" as="sourcePoint" />
            <mxPoint x="710" y="756" as="targetPoint" />
            <Array as="points">
              <mxPoint x="750" y="440" />
              <mxPoint x="490" y="440" />
            </Array>
          </mxGeometry>
        </mxCell>
        <mxCell id="xDou8C9xw5O-RQy3T55p-32" value="AbstractPersonLoaderFactory" style="swimlane;fontStyle=1;align=center;verticalAlign=top;childLayout=stackLayout;horizontal=1;startSize=26;horizontalStack=0;resizeParent=1;resizeParentMax=0;resizeLast=0;collapsible=1;marginBottom=0;whiteSpace=wrap;html=1;fontSize=16;" vertex="1" parent="1">
          <mxGeometry x="230" y="720" width="500" height="86" as="geometry" />
        </mxCell>
        <mxCell id="xDou8C9xw5O-RQy3T55p-33" value="" style="line;strokeWidth=1;fillColor=none;align=left;verticalAlign=middle;spacingTop=-1;spacingLeft=3;spacingRight=3;rotatable=0;labelPosition=right;points=[];portConstraint=eastwest;strokeColor=inherit;fontSize=16;" vertex="1" parent="xDou8C9xw5O-RQy3T55p-32">
          <mxGeometry y="26" width="500" height="8" as="geometry" />
        </mxCell>
        <mxCell id="xDou8C9xw5O-RQy3T55p-34" value="+ &amp;lt;&amp;lt;virtual&amp;gt;&amp;gt; create_loader(): AbstractPersonLoader = 0" style="text;strokeColor=none;fillColor=none;align=left;verticalAlign=top;spacingLeft=4;spacingRight=4;overflow=hidden;rotatable=0;points=[[0,0.5],[1,0.5]];portConstraint=eastwest;whiteSpace=wrap;html=1;fontSize=16;" vertex="1" parent="xDou8C9xw5O-RQy3T55p-32">
          <mxGeometry y="34" width="500" height="26" as="geometry" />
        </mxCell>
        <mxCell id="xDou8C9xw5O-RQy3T55p-35" value="+ &amp;lt;&amp;lt;virtual&amp;gt;&amp;gt; is_match(path: string): bool = 0" style="text;strokeColor=none;fillColor=none;align=left;verticalAlign=top;spacingLeft=4;spacingRight=4;overflow=hidden;rotatable=0;points=[[0,0.5],[1,0.5]];portConstraint=eastwest;whiteSpace=wrap;html=1;fontSize=16;" vertex="1" parent="xDou8C9xw5O-RQy3T55p-32">
          <mxGeometry y="60" width="500" height="26" as="geometry" />
        </mxCell>
        <mxCell id="xDou8C9xw5O-RQy3T55p-36" value="JSONPersonLoaderFactory" style="swimlane;fontStyle=1;align=center;verticalAlign=top;childLayout=stackLayout;horizontal=1;startSize=26;horizontalStack=0;resizeParent=1;resizeParentMax=0;resizeLast=0;collapsible=1;marginBottom=0;whiteSpace=wrap;html=1;fontSize=16;" vertex="1" parent="1">
          <mxGeometry x="-140" y="920" width="520" height="86" as="geometry" />
        </mxCell>
        <mxCell id="xDou8C9xw5O-RQy3T55p-37" value="" style="line;strokeWidth=1;fillColor=none;align=left;verticalAlign=middle;spacingTop=-1;spacingLeft=3;spacingRight=3;rotatable=0;labelPosition=right;points=[];portConstraint=eastwest;strokeColor=inherit;fontSize=16;" vertex="1" parent="xDou8C9xw5O-RQy3T55p-36">
          <mxGeometry y="26" width="520" height="8" as="geometry" />
        </mxCell>
        <mxCell id="xDou8C9xw5O-RQy3T55p-38" value="+ &amp;lt;&amp;lt;virtual&amp;gt;&amp;gt; &amp;lt;&amp;lt;override&amp;gt;&amp;gt;&amp;nbsp;create_loader(): AbstractPersonLoader" style="text;strokeColor=none;fillColor=none;align=left;verticalAlign=top;spacingLeft=4;spacingRight=4;overflow=hidden;rotatable=0;points=[[0,0.5],[1,0.5]];portConstraint=eastwest;whiteSpace=wrap;html=1;fontSize=16;" vertex="1" parent="xDou8C9xw5O-RQy3T55p-36">
          <mxGeometry y="34" width="520" height="26" as="geometry" />
        </mxCell>
        <mxCell id="xDou8C9xw5O-RQy3T55p-39" value="+ &amp;lt;&amp;lt;virtual&amp;gt;&amp;gt; &amp;lt;&amp;lt;override&amp;gt;&amp;gt;&amp;nbsp;is_match(path: string): bool" style="text;strokeColor=none;fillColor=none;align=left;verticalAlign=top;spacingLeft=4;spacingRight=4;overflow=hidden;rotatable=0;points=[[0,0.5],[1,0.5]];portConstraint=eastwest;whiteSpace=wrap;html=1;fontSize=16;" vertex="1" parent="xDou8C9xw5O-RQy3T55p-36">
          <mxGeometry y="60" width="520" height="26" as="geometry" />
        </mxCell>
        <mxCell id="xDou8C9xw5O-RQy3T55p-40" value="XMLPersonLoaderFactory" style="swimlane;fontStyle=1;align=center;verticalAlign=top;childLayout=stackLayout;horizontal=1;startSize=26;horizontalStack=0;resizeParent=1;resizeParentMax=0;resizeLast=0;collapsible=1;marginBottom=0;whiteSpace=wrap;html=1;fontSize=16;" vertex="1" parent="1">
          <mxGeometry x="560" y="920" width="520" height="86" as="geometry" />
        </mxCell>
        <mxCell id="xDou8C9xw5O-RQy3T55p-41" value="" style="line;strokeWidth=1;fillColor=none;align=left;verticalAlign=middle;spacingTop=-1;spacingLeft=3;spacingRight=3;rotatable=0;labelPosition=right;points=[];portConstraint=eastwest;strokeColor=inherit;fontSize=16;" vertex="1" parent="xDou8C9xw5O-RQy3T55p-40">
          <mxGeometry y="26" width="520" height="8" as="geometry" />
        </mxCell>
        <mxCell id="xDou8C9xw5O-RQy3T55p-42" value="+ &amp;lt;&amp;lt;virtual&amp;gt;&amp;gt; &amp;lt;&amp;lt;override&amp;gt;&amp;gt;&amp;nbsp;create_loader(): AbstractPersonLoader" style="text;strokeColor=none;fillColor=none;align=left;verticalAlign=top;spacingLeft=4;spacingRight=4;overflow=hidden;rotatable=0;points=[[0,0.5],[1,0.5]];portConstraint=eastwest;whiteSpace=wrap;html=1;fontSize=16;" vertex="1" parent="xDou8C9xw5O-RQy3T55p-40">
          <mxGeometry y="34" width="520" height="26" as="geometry" />
        </mxCell>
        <mxCell id="xDou8C9xw5O-RQy3T55p-43" value="+ &amp;lt;&amp;lt;virtual&amp;gt;&amp;gt; &amp;lt;&amp;lt;override&amp;gt;&amp;gt;&amp;nbsp;is_match(path: string): bool" style="text;strokeColor=none;fillColor=none;align=left;verticalAlign=top;spacingLeft=4;spacingRight=4;overflow=hidden;rotatable=0;points=[[0,0.5],[1,0.5]];portConstraint=eastwest;whiteSpace=wrap;html=1;fontSize=16;" vertex="1" parent="xDou8C9xw5O-RQy3T55p-40">
          <mxGeometry y="60" width="520" height="26" as="geometry" />
        </mxCell>
        <mxCell id="xDou8C9xw5O-RQy3T55p-44" value="Extends" style="endArrow=block;endSize=16;endFill=0;html=1;rounded=0;fontSize=16;strokeWidth=2;" edge="1" parent="1" source="xDou8C9xw5O-RQy3T55p-36" target="xDou8C9xw5O-RQy3T55p-32">
          <mxGeometry width="160" relative="1" as="geometry">
            <mxPoint x="276" y="840" as="sourcePoint" />
            <mxPoint x="436" y="840" as="targetPoint" />
            <Array as="points">
              <mxPoint x="120" y="760" />
            </Array>
          </mxGeometry>
        </mxCell>
        <mxCell id="xDou8C9xw5O-RQy3T55p-46" value="Extends" style="endArrow=block;endSize=16;endFill=0;html=1;rounded=0;fontSize=16;strokeWidth=2;" edge="1" parent="1" source="xDou8C9xw5O-RQy3T55p-40" target="xDou8C9xw5O-RQy3T55p-32">
          <mxGeometry width="160" relative="1" as="geometry">
            <mxPoint x="850" y="750" as="sourcePoint" />
            <mxPoint x="1010" y="750" as="targetPoint" />
            <Array as="points" />
          </mxGeometry>
        </mxCell>
        <mxCell id="xDou8C9xw5O-RQy3T55p-49" value="метод load принимает на вход путь к файлу&lt;br&gt;с сериализованными данными,&lt;br style=&quot;font-size: 16px;&quot;&gt;десериализует их и&lt;br&gt;возвращает список десериализованных объектов." style="strokeWidth=2;html=1;shape=mxgraph.flowchart.annotation_2;align=left;labelPosition=right;pointerEvents=1;fontSize=16;" vertex="1" parent="1">
          <mxGeometry x="800" y="230" width="50" height="100" as="geometry" />
        </mxCell>
        <mxCell id="xDou8C9xw5O-RQy3T55p-50" style="edgeStyle=orthogonalEdgeStyle;rounded=0;orthogonalLoop=1;jettySize=auto;html=1;exitX=0;exitY=0.5;exitDx=0;exitDy=0;exitPerimeter=0;entryX=1.001;entryY=-0.122;entryDx=0;entryDy=0;entryPerimeter=0;strokeWidth=2;" edge="1" parent="1" source="xDou8C9xw5O-RQy3T55p-49" target="xDou8C9xw5O-RQy3T55p-13">
          <mxGeometry relative="1" as="geometry" />
        </mxCell>
        <mxCell id="xDou8C9xw5O-RQy3T55p-53" style="edgeStyle=orthogonalEdgeStyle;rounded=0;orthogonalLoop=1;jettySize=auto;html=1;exitX=0;exitY=0.5;exitDx=0;exitDy=0;exitPerimeter=0;strokeWidth=2;" edge="1" parent="1" source="xDou8C9xw5O-RQy3T55p-51" target="xDou8C9xw5O-RQy3T55p-32">
          <mxGeometry relative="1" as="geometry" />
        </mxCell>
        <mxCell id="xDou8C9xw5O-RQy3T55p-51" value="&lt;font style=&quot;font-size: 16px;&quot;&gt;Метод create_loader создаёт объект типа AbstractPersonLoader;&lt;br&gt;метод is_match проверяет расширение и возвращает истину в том случае,&lt;br&gt;если класс может создать для такого файла объект-загрузчик&lt;/font&gt;" style="strokeWidth=2;html=1;shape=mxgraph.flowchart.annotation_2;align=left;labelPosition=right;pointerEvents=1;rotation=0;" vertex="1" parent="1">
          <mxGeometry x="840" y="713" width="50" height="100" as="geometry" />
        </mxCell>
      </root>
    </mxGraphModel>
  </diagram>
</mxfile>
